<svg width="148" height="58" viewBox="0 0 148 58" fill="none" xmlns="http://www.w3.org/2000/svg">
<g clip-path="url(#clip0_1568_4658)">
<path d="M140.054 43.0728C137.287 43.0728 135.864 44.8961 135.64 45.168C134.936 43.8565 133.657 43.0728 131.977 43.0728C129.546 43.0728 128.155 44.4802 127.931 44.7201C127.835 44.3363 127.339 43.3127 125.755 43.3127C125.292 43.3127 124.636 43.4566 124.588 43.4726C124.652 43.7605 124.956 45.2 124.956 47.1992V55.948H128.155V47.0393C128.155 47.0393 129.418 45.7757 130.858 45.7757C132.297 45.7757 133.017 46.8473 133.017 48.3188V55.964H136.232V47.0393C136.232 47.0393 137.479 45.7757 138.935 45.7757C140.39 45.7757 141.062 46.8473 141.062 48.3188V55.964H144.293V47.823C144.293 44.9601 142.661 43.1047 140.07 43.1047L140.054 43.0728Z" fill="#676767"/>
<path d="M104.947 53.6127C102.771 53.6127 101.22 51.8854 101.22 49.6462C101.22 47.1511 102.979 45.6477 104.947 45.6477C106.002 45.6477 106.45 45.9676 107.154 45.9676C107.905 45.9676 108.305 45.5997 108.673 44.88C108.881 44.4801 109.009 44.2562 109.009 44.2562C108.849 44.1602 107.218 43.0566 104.483 43.0566C100.452 43.0566 98.0371 45.9516 98.0371 49.6462C98.0371 53.6767 100.788 56.2037 104.483 56.2037C107.154 56.2037 108.785 55.1162 109.057 54.9082L107.937 52.717C107.698 52.877 106.546 53.6127 104.947 53.6127Z" fill="#676767"/>
<path d="M69.8396 43.0728C66.7688 43.0728 64.1777 45.5678 64.1777 49.6623C64.1777 53.7568 66.6888 56.2199 70.4474 56.2199C73.4223 56.2199 74.9737 54.9083 75.1656 54.7964C75.1656 54.7964 74.8778 54.3326 74.7978 54.1886C74.3819 53.5009 73.9021 53.277 73.3743 53.277C72.3187 53.277 72.1908 53.7088 70.7513 53.7088C68.3042 53.7088 67.4565 51.7895 67.3925 50.51H75.5975V49.5663C75.5975 45.6478 73.3423 43.0728 69.8396 43.0728ZM67.3606 48.2548C67.3606 46.8154 68.3682 45.4879 69.7757 45.4879C71.3591 45.4879 72.2227 46.8633 72.2547 48.2548H67.3606Z" fill="#676767"/>
<path d="M81.068 52.3813V39.2822C81.068 37.8108 80.0763 36.6592 78.5569 36.6592H77.8691V53.6609C77.8691 55.2283 78.8448 56.2039 80.5242 56.2039C82.6034 56.2039 83.2271 54.7325 83.2271 53.341C83.1472 53.389 82.6993 53.5649 82.2515 53.5649C81.5158 53.5649 81.068 53.1331 81.068 52.3813Z" fill="#676767"/>
<path d="M59.6679 51.9496V45.7279H62.3389L63.2665 43.3128H59.6519V39.5542C59.6519 39.5542 59.364 39.5542 59.348 39.5542C57.9245 39.5542 56.4531 40.162 56.4531 43.2968V43.3288H54.0859V45.7439H56.4531V53.0692C56.4531 55.1484 57.6846 56.22 59.4279 56.22C60.8354 56.22 62.6587 55.7882 62.6587 53.0052C62.5468 53.0692 61.875 53.517 61.1233 53.517C60.0837 53.517 59.6679 52.8772 59.6679 51.9656V51.9496Z" fill="#676767"/>
<path d="M89.9295 43.0728C86.8586 43.0728 84.2676 45.5678 84.2676 49.6623C84.2676 53.7568 86.7786 56.2199 90.5213 56.2199C93.4961 56.2199 95.0476 54.9083 95.2395 54.7964C95.2395 54.7964 94.9516 54.3326 94.8716 54.1886C94.4558 53.5009 93.976 53.277 93.4482 53.277C92.3926 53.277 92.2646 53.7088 90.8251 53.7088C88.378 53.7088 87.5144 51.7895 87.4664 50.51H95.6873V49.5663C95.6873 45.6478 93.4322 43.0728 89.9295 43.0728ZM87.4664 48.2548C87.4664 46.8154 88.474 45.4879 89.8975 45.4879C91.4809 45.4879 92.3446 46.8633 92.3766 48.2548H87.4824H87.4664Z" fill="#676767"/>
<path d="M116.383 56.2039C112.465 56.2039 110.098 53.6128 110.098 49.6463C110.098 45.6798 112.433 43.0728 116.383 43.0728C120.334 43.0728 122.669 45.6958 122.669 49.6463C122.669 53.3889 120.526 56.2039 116.383 56.2039ZM116.383 53.7408C118.351 53.7408 119.486 52.0454 119.486 49.6463C119.486 47.2472 118.383 45.5358 116.383 45.5358C114.384 45.5358 113.296 47.2152 113.296 49.6463C113.296 52.0774 114.4 53.7408 116.383 53.7408Z" fill="#676767"/>
<path d="M13.2362 41.937C11.3009 41.0253 9.7175 40.3056 9.7175 38.8181C9.7175 37.6986 10.6132 36.8669 12.4045 36.8669C13.0603 36.8669 13.6041 36.9468 14.1479 37.0428C14.4357 37.0908 14.7396 37.1388 15.0115 37.1388C16.563 37.1388 17.4426 36.2111 18.0344 34.4358L18.2743 33.716C18.0344 33.6201 15.4754 32.5005 12.1646 32.5005C6.87056 32.5005 4.0876 35.8912 4.0876 39.4099C4.0876 41.1853 4.64739 42.4648 5.51107 43.4884C6.63065 44.7839 8.23006 45.6476 9.7175 46.3673C11.8927 47.4389 13.86 48.2226 13.86 49.806C13.86 51.2135 12.4045 52.0132 10.4692 52.0132C7.81421 52.0132 5.47908 50.4938 5.19119 50.3019L3 54.3963C3.38386 54.6202 6.19881 56.3956 10.8211 56.3956C15.7633 56.3956 19.4899 53.5646 19.4899 49.2143C19.4899 44.8639 16.0352 43.2805 13.2202 41.921L13.2362 41.937Z" fill="black"/>
<path d="M32.5245 43.9524L41.4652 32.9805H35.0835L27.9502 42.4489H27.8382V32.9805H22.5762V56.2198H22.8961C25.1672 56.2198 27.8702 55.1642 27.8702 51.3736V46.0316H27.9822L35.2595 55.9319H41.945L32.5085 43.9524H32.5245Z" fill="black"/>
<path d="M53.9263 24.2156L54.9179 24.2476C55.3817 24.2796 55.9095 24.3116 56.6133 24.3116C61.4755 24.2956 64.6423 22.5683 66.3696 21.6086C62.3711 19.0975 56.5813 16.5545 49.4479 16.2666C48.9841 17.5941 45.3055 27.8143 45.0176 28.646C45.0656 28.694 45.7053 29.4137 46.505 30.8212C47.6246 32.6285 48.2484 34.1959 48.6802 35.3635C49.5919 33.8281 49.7518 31.445 49.8478 28.726C49.9437 26.4548 50.3276 24.2316 53.9423 24.2316L53.9263 24.2156Z" fill="black"/>
<path d="M72.4305 26.7108C72.1106 26.199 70.4952 24.4717 67.7922 22.5684L67.7123 22.6163C65.5851 23.7839 62.0184 25.7512 56.7563 25.7832C56.0686 25.7832 55.6527 25.7512 55.3009 25.7352L54.3412 25.7032C51.8621 25.7032 51.3503 26.7748 51.2704 28.838V29.3978L51.2224 30.4374C51.1264 32.7246 50.8385 35.2996 49.3511 37.075L49.2871 37.1549C49.3511 37.2989 49.3991 37.4428 49.463 37.5388C49.591 37.7627 49.7669 37.8587 49.9749 37.8587C50.1028 37.8587 50.2627 37.8107 50.4387 37.7307C50.8705 37.5388 68.2081 29.4618 70.8151 28.2622C71.199 28.0703 71.9187 27.7664 72.1586 27.6225C72.3985 27.4785 72.5105 27.2706 72.5105 27.0627C72.5105 26.9507 72.4785 26.8228 72.4145 26.7268L72.4305 26.7108Z" fill="#676767"/>
<path d="M41.9628 8.23767L41.8029 8.26966C40.0755 8.58954 37.3566 10.1889 37.3566 13.0839C37.3566 14.2994 37.8364 15.307 38.3322 16.3786C38.908 17.6102 39.5637 19.0177 39.5637 20.9369C39.5637 23.8479 37.9004 25.5272 36.7168 26.3429C37.2606 26.3109 37.8364 26.279 38.4601 26.279C40.0755 26.279 41.0512 26.4229 41.1152 26.4389L49.4161 16.2507C47.1609 12.8759 44.5539 10.2529 41.9469 8.22168L41.9628 8.23767Z" fill="black"/>
<path d="M35.0849 25.8471C36.6043 24.9674 38.0918 23.448 38.0918 20.905C38.0918 19.3855 37.548 18.218 36.9722 16.9864C36.4124 15.7709 35.8366 14.5233 35.8366 12.9239C35.8366 9.43723 38.6356 7.6459 40.4109 7.1021C34.781 3.23154 29.535 2 28.5593 2C28.2234 2 27.9355 2.22392 27.9355 2.67175C27.9355 2.94365 28.0475 3.71136 28.0795 4.12721C28.3834 7.00614 30.4626 25.9911 30.5106 26.4709C30.5746 26.9507 30.7825 27.2386 31.1983 27.2226C31.2623 27.2226 31.3423 27.2226 31.4223 27.2226C31.7261 27.1906 32.3179 27.1107 33.0217 26.8388C33.8533 26.5189 34.3812 26.231 35.0689 25.8471H35.0849Z" fill="#676767"/>
</g>
<defs>
<clipPath id="clip0_1568_4658">
<rect width="141.291" height="54.4118" fill="white" transform="translate(3 2)"/>
</clipPath>
</defs>
</svg>
