<svg width="96" height="36" viewBox="0 0 96 36" fill="none" xmlns="http://www.w3.org/2000/svg">
<g clip-path="url(#clip0_1874_2212)">
<path d="M92.15 27.1748C90.2896 27.1748 89.3325 28.3812 89.1819 28.561C88.7088 27.6933 87.8484 27.1748 86.7193 27.1748C85.0847 27.1748 84.1491 28.106 83.9985 28.2648C83.934 28.0108 83.6007 27.3335 82.536 27.3335C82.2242 27.3335 81.7832 27.4288 81.751 27.4394C81.794 27.6298 81.9983 28.5822 81.9983 29.905V35.6933H84.1491V29.7991C84.1491 29.7991 84.9987 28.9632 85.9665 28.9632C86.9344 28.9632 87.4183 29.6722 87.4183 30.6457V35.7039H89.5798V29.7991C89.5798 29.7991 90.4186 28.9632 91.3972 28.9632C92.3758 28.9632 92.8275 29.6722 92.8275 30.6457V35.7039H94.9998V30.3177C94.9998 28.4235 93.9029 27.196 92.1608 27.196L92.15 27.1748Z" fill="#676767"/>
<path d="M68.5471 34.1482C67.0845 34.1482 66.0414 33.0053 66.0414 31.5239C66.0414 29.8731 67.2243 28.8783 68.5471 28.8783C69.2568 28.8783 69.5579 29.09 70.0311 29.09C70.5365 29.09 70.8054 28.8466 71.0527 28.3704C71.1925 28.1059 71.2785 27.9577 71.2785 27.9577C71.171 27.8942 70.0741 27.1641 68.2352 27.1641C65.5252 27.1641 63.9014 29.0794 63.9014 31.5239C63.9014 34.1905 65.751 35.8625 68.2352 35.8625C70.0311 35.8625 71.128 35.1429 71.3108 35.0053L70.558 33.5556C70.3967 33.6614 69.6224 34.1482 68.5471 34.1482Z" fill="#676767"/>
<path d="M44.9426 27.1748C42.8779 27.1748 41.1357 28.8256 41.1357 31.5346C41.1357 34.2436 42.8241 35.8732 45.3513 35.8732C47.3515 35.8732 48.3946 35.0055 48.5237 34.9314C48.5237 34.9314 48.3301 34.6245 48.2763 34.5293C47.9967 34.0743 47.6741 33.9261 47.3192 33.9261C46.6095 33.9261 46.5234 34.2118 45.5556 34.2118C43.9103 34.2118 43.3403 32.942 43.2973 32.0954H48.814V31.4711C48.814 28.8785 47.2977 27.1748 44.9426 27.1748ZM43.2758 30.6034C43.2758 29.651 43.9533 28.7727 44.8996 28.7727C45.9642 28.7727 46.545 29.6827 46.5665 30.6034H43.2758Z" fill="#676767"/>
<path d="M52.4896 33.3338V24.6671C52.4896 23.6935 51.8229 22.9316 50.8013 22.9316H50.3389V34.1803C50.3389 35.2174 50.9949 35.8629 52.124 35.8629C53.522 35.8629 53.9414 34.8893 53.9414 33.9687C53.8877 34.0004 53.5865 34.1168 53.2854 34.1168C52.7908 34.1168 52.4896 33.8311 52.4896 33.3338Z" fill="#676767"/>
<path d="M38.1017 33.0477V28.9313H39.8976L40.5214 27.3335H38.091V24.8467C38.091 24.8467 37.8974 24.8467 37.8867 24.8467C36.9296 24.8467 35.9402 25.2488 35.9402 27.3229V27.344H34.3486V28.9419H35.9402V33.7885C35.9402 35.1641 36.7683 35.8731 37.9404 35.8731C38.8868 35.8731 40.1127 35.5874 40.1127 33.7461C40.0374 33.7885 39.5858 34.0848 39.0804 34.0848C38.3813 34.0848 38.1017 33.6615 38.1017 33.0583V33.0477Z" fill="#676767"/>
<path d="M58.4475 27.1748C56.3828 27.1748 54.6406 28.8256 54.6406 31.5346C54.6406 34.2436 56.329 35.8732 58.8454 35.8732C60.8456 35.8732 61.8888 35.0055 62.0178 34.9314C62.0178 34.9314 61.8242 34.6245 61.7705 34.5293C61.4909 34.0743 61.1682 33.9261 60.8134 33.9261C60.1036 33.9261 60.0176 34.2118 59.0497 34.2118C57.4044 34.2118 56.8237 32.942 56.7914 32.0954H62.3189V31.4711C62.3189 28.8785 60.8026 27.1748 58.4475 27.1748ZM56.7914 30.6034C56.7914 29.651 57.4689 28.7727 58.426 28.7727C59.4906 28.7727 60.0713 29.6827 60.0929 30.6034H56.8022H56.7914Z" fill="#676767"/>
<path d="M76.2351 35.8626C73.6004 35.8626 72.0088 34.1484 72.0088 31.524C72.0088 28.8997 73.5789 27.1748 76.2351 27.1748C78.8913 27.1748 80.4614 28.9103 80.4614 31.524C80.4614 34.0002 79.0203 35.8626 76.2351 35.8626ZM76.2351 34.233C77.5578 34.233 78.3213 33.1113 78.3213 31.524C78.3213 29.9367 77.5793 28.8044 76.2351 28.8044C74.8908 28.8044 74.1596 29.9155 74.1596 31.524C74.1596 33.1325 74.9016 34.233 76.2351 34.233Z" fill="#676767"/>
<path d="M6.8825 26.4231C5.58128 25.8199 4.51664 25.3437 4.51664 24.3596C4.51664 23.6188 5.11886 23.0686 6.3233 23.0686C6.76421 23.0686 7.12984 23.1215 7.49547 23.185C7.68904 23.2167 7.89337 23.2485 8.07618 23.2485C9.11931 23.2485 9.71078 22.6347 10.1087 21.4601L10.27 20.9839C10.1087 20.9204 8.38805 20.1797 6.16199 20.1797C2.60244 20.1797 0.731266 22.4231 0.731266 24.7511C0.731266 25.9257 1.10765 26.7723 1.68836 27.4495C2.44114 28.3067 3.51653 28.8781 4.51664 29.3543C5.97917 30.0633 7.3019 30.5818 7.3019 31.6294C7.3019 32.5606 6.3233 33.0897 5.02207 33.0897C3.23693 33.0897 1.66686 32.0844 1.47328 31.9575L0 34.6665C0.258094 34.8146 2.15078 35.9892 5.25866 35.9892C8.58162 35.9892 11.0873 34.1162 11.0873 31.2379C11.0873 28.3596 8.76443 27.312 6.87175 26.4125L6.8825 26.4231Z" fill="black"/>
<path d="M19.853 27.7563L25.8644 20.4971H21.5736L16.7774 26.7616H16.7021V20.4971H13.1641V35.8727H13.3791C14.9062 35.8727 16.7236 35.1743 16.7236 32.6664V29.132H16.7989L21.6919 35.6823H26.187L19.8422 27.7563H19.853Z" fill="black"/>
<path d="M34.2399 14.6987L34.9067 14.7199C35.2185 14.741 35.5734 14.7622 36.0466 14.7622C39.3158 14.7516 41.445 13.6088 42.6065 12.9738C39.918 11.3125 36.0251 9.62993 31.2288 9.43945C30.917 10.3178 28.4436 17.0797 28.25 17.6299C28.2823 17.6617 28.7124 18.1379 29.2501 19.0691C30.0029 20.2649 30.4223 21.3019 30.7126 22.0744C31.3256 21.0585 31.4332 19.4818 31.4977 17.6828C31.5622 16.1802 31.8203 14.7093 34.2507 14.7093L34.2399 14.6987Z" fill="black"/>
<path d="M46.682 16.3491C46.4669 16.0105 45.3808 14.8677 43.5634 13.6084L43.5096 13.6401C42.0793 14.4126 39.6812 15.7142 36.1432 15.7354C35.6808 15.7354 35.4011 15.7142 35.1646 15.7036L34.5193 15.6825C32.8525 15.6825 32.5083 16.3915 32.4546 17.7565V18.1269L32.4223 18.8147C32.3578 20.328 32.1642 22.0317 31.1641 23.2063L31.1211 23.2592C31.1641 23.3544 31.1964 23.4497 31.2394 23.5132C31.3254 23.6613 31.4437 23.7248 31.5835 23.7248C31.6695 23.7248 31.7771 23.6931 31.8954 23.6401C32.1857 23.5132 43.843 18.1692 45.5959 17.3756C45.8539 17.2486 46.3379 17.0476 46.4992 16.9523C46.6605 16.8571 46.7358 16.7195 46.7358 16.5819C46.7358 16.5079 46.7143 16.4232 46.6712 16.3597L46.682 16.3491Z" fill="#676767"/>
<path d="M26.1962 4.12679L26.0887 4.14796C24.9273 4.3596 23.0991 5.4178 23.0991 7.33314C23.0991 8.13737 23.4217 8.80404 23.7551 9.51303C24.1422 10.3278 24.5831 11.2591 24.5831 12.5289C24.5831 14.4548 23.4647 15.5659 22.6689 16.1056C23.0346 16.0845 23.4217 16.0633 23.8411 16.0633C24.9273 16.0633 25.5833 16.1585 25.6263 16.1691L31.2075 9.42838C29.6912 7.19557 27.9384 5.46013 26.1855 4.11621L26.1962 4.12679Z" fill="black"/>
<path d="M21.5716 15.7778C22.5933 15.1958 23.5934 14.1905 23.5934 12.5079C23.5934 11.5026 23.2277 10.7302 22.8406 9.91534C22.4642 9.11111 22.0771 8.28571 22.0771 7.22751C22.0771 4.92063 23.959 3.73545 25.1527 3.37566C21.3673 0.814815 17.84 0 17.1841 0C16.9582 0 16.7646 0.148148 16.7646 0.444444C16.7646 0.624339 16.8399 1.13228 16.8614 1.40741C17.0658 3.31217 18.4638 15.873 18.496 16.1905C18.539 16.5079 18.6788 16.6984 18.9584 16.6878C19.0015 16.6878 19.0552 16.6878 19.109 16.6878C19.3133 16.6667 19.7112 16.6138 20.1844 16.4339C20.7436 16.2222 21.0985 16.0317 21.5609 15.7778H21.5716Z" fill="#676767"/>
</g>
<defs>
<clipPath id="clip0_1874_2212">
<rect width="95" height="36" fill="white"/>
</clipPath>
</defs>
</svg>
