<svg width="115" height="40" viewBox="0 0 115 40" fill="none" xmlns="http://www.w3.org/2000/svg">
<path d="M20.2495 0C10.3214 0 1.43359 6.76829 1.43359 16.8757C1.43359 26.9831 8.33126 33.1424 17.2643 34.7894V39.0534C17.2667 39.1574 17.2948 39.259 17.3461 39.3495C17.3974 39.44 17.4702 39.5166 17.5583 39.5723L18.0332 39.9331C18.1249 39.9771 18.2254 40 18.3272 40C18.429 40 18.5295 39.9771 18.6212 39.9331C24.0036 38.0379 39.2916 31.0893 39.2916 17.5978C39.2463 6.99406 31.3988 0 20.2495 0Z" fill="#3B7CF3"/>
<path d="M68.5794 15.6979H65.9009V7.24967C65.9009 6.84737 65.5777 6.51607 65.1851 6.51607H63.0146C62.6221 6.51607 62.2988 6.84737 62.2988 7.24967V30.4645C62.2988 30.8668 62.6221 31.1981 63.0146 31.1981H65.162C65.5546 31.1981 65.8779 30.8668 65.8779 30.4645V19.0819H68.5563V31.4585C68.5563 31.8608 68.8796 32.1921 69.2721 32.1921H71.4196C71.8121 32.1921 72.1354 31.8608 72.1354 31.4585V6.84737C72.1354 6.44507 71.8121 6.11377 71.4196 6.11377H69.2952C68.9027 6.11377 68.5794 6.44507 68.5794 6.84737V15.6979Z" fill="#1A1A1A"/>
<path d="M91.0933 19.4374L90.9086 17.7336C90.8624 17.3313 90.516 17.0473 90.1466 17.071L85.5054 17.4259H79.2479V15.1068H87.9068C88.2994 15.1068 88.6226 14.7755 88.6226 14.3732V12.7404C88.6226 12.3381 88.2994 12.0068 87.9068 12.0068H79.2479V9.71131H88.8997C89.2923 9.71131 89.6155 9.38001 89.6155 8.97771V7.2502C89.6155 6.8479 89.2923 6.5166 88.8997 6.5166H76.3154C75.9229 6.5166 75.5996 6.8479 75.5996 7.2502L75.6689 19.9107C75.6689 20.313 75.9921 20.6443 76.3847 20.6443H85.5978L90.4237 20.2657C90.8393 20.2184 91.1395 19.8397 91.0933 19.4374Z" fill="#1A1A1A"/>
<path d="M93.0508 6.84856V20.716C93.0508 21.1183 93.374 21.4496 93.7666 21.4496H96.0987C96.4913 21.4496 96.8145 21.1183 96.8145 20.716V6.84856C96.8145 6.44627 96.4913 6.11496 96.0987 6.11496H93.7666C93.374 6.0913 93.0508 6.4226 93.0508 6.84856Z" fill="#1A1A1A"/>
<path d="M55.9276 13.2852H59.4374C59.8299 13.2852 60.1532 12.9539 60.1532 12.5516V10.7294C60.1532 10.3271 59.8299 9.99584 59.4374 9.99584H55.9276V7.34542C55.9276 6.94312 55.6044 6.61182 55.2118 6.61182H52.9721C52.5795 6.61182 52.2562 6.94312 52.2562 7.34542V9.97218H48.4925C48.1 9.97218 47.7767 10.3035 47.7767 10.7058V12.5279C47.7767 12.9302 48.1 13.2615 48.4925 13.2615H52.2562V18.4441L47.2918 23.4609C47.0147 23.7449 47.0147 24.2182 47.2918 24.5022L48.5387 25.8037C48.8158 26.0877 49.2776 26.0877 49.5547 25.8037L54.242 21.0708L58.3521 25.4961C58.6292 25.8037 59.091 25.8037 59.3681 25.5198L60.6612 24.2655C60.9614 24.0052 60.9844 23.5319 60.7074 23.248L55.9276 18.0891V13.2852Z" fill="#1A1A1A"/>
<path d="M112.064 6.07186H107.954V1.85958C107.954 1.45728 107.631 1.12598 107.238 1.12598H105.507C105.114 1.12598 104.791 1.45728 104.791 1.85958V6.07186H100.681C100.288 6.07186 99.9648 6.40316 99.9648 6.80546V8.5803C99.9648 8.98259 100.288 9.3139 100.681 9.3139H104.791V13.5262C104.791 13.9285 105.114 14.2598 105.507 14.2598H107.238C107.631 14.2598 107.954 13.9285 107.954 13.5262V9.33756H112.064C112.457 9.33756 112.78 9.00626 112.78 8.60396V6.82912C112.803 6.40316 112.48 6.07186 112.064 6.07186Z" fill="#3B7CF3"/>
<path d="M89.2554 21.6899C85.0991 21.6899 82.0742 24.222 82.0742 27.7481C82.0742 31.3451 85.0298 33.8535 89.2554 33.8535C93.4578 33.8535 96.4134 31.3451 96.4134 27.7481C96.3903 24.222 93.3885 21.6899 89.2554 21.6899ZM89.2554 24.932C91.2411 24.932 92.6958 26.1152 92.6958 27.7481C92.6958 29.4282 91.2873 30.5878 89.2554 30.5878C87.2003 30.5878 85.7687 29.4282 85.7687 27.7481C85.7687 26.1152 87.2234 24.932 89.2554 24.932Z" fill="#1A1A1A"/>
</svg>
