<svg width="106" height="38" viewBox="0 0 106 38" fill="none" xmlns="http://www.w3.org/2000/svg">
<path d="M17.8751 0C8.4434 0 0 6.42988 0 16.0319C0 25.6339 6.55278 31.4853 15.0392 33.0499V37.1008C15.0415 37.1995 15.0681 37.296 15.1169 37.382C15.1656 37.468 15.2348 37.5408 15.3184 37.5937L15.7696 37.9364C15.8568 37.9782 15.9522 38 16.0489 38C16.1456 38 16.2411 37.9782 16.3282 37.9364C21.4415 36.136 35.9651 29.5349 35.9651 16.7179C35.9221 6.64436 28.467 0 17.8751 0Z" fill="#3B7CF3"/>
<path d="M63.7947 14.9213H61.2501V6.89551C61.2501 6.51333 60.943 6.19859 60.5701 6.19859H58.5081C58.1352 6.19859 57.8281 6.51333 57.8281 6.89551V28.9496C57.8281 29.3318 58.1352 29.6466 58.5081 29.6466H60.5482C60.9211 29.6466 61.2282 29.3318 61.2282 28.9496V18.1361H63.7728V29.8939C63.7728 30.276 64.0799 30.5908 64.4528 30.5908H66.4928C66.8657 30.5908 67.1728 30.276 67.1728 29.8939V6.51333C67.1728 6.13114 66.8657 5.81641 66.4928 5.81641H64.4747C64.1018 5.81641 63.7947 6.13114 63.7947 6.51333V14.9213Z" fill="#191919"/>
<path d="M85.1878 18.473L85.0123 16.8544C84.9684 16.4722 84.6394 16.2024 84.2884 16.2249L79.8793 16.5621H73.9346V14.3589H82.1606C82.5335 14.3589 82.8406 14.0442 82.8406 13.662V12.1108C82.8406 11.7286 82.5335 11.4139 82.1606 11.4139H73.9346V9.23322H83.1038C83.4768 9.23322 83.7839 8.91848 83.7839 8.5363V6.89516C83.7839 6.51298 83.4768 6.19824 83.1038 6.19824H71.1488C70.7759 6.19824 70.4688 6.51298 70.4688 6.89516L70.5346 18.9226C70.5346 19.3048 70.8417 19.6196 71.2146 19.6196H79.967L84.5516 19.2599C84.9465 19.2149 85.2316 18.8552 85.1878 18.473Z" fill="#191919"/>
<path d="M87.0469 6.51446V19.6885C87.0469 20.0707 87.354 20.3854 87.7269 20.3854H89.9424C90.3153 20.3854 90.6224 20.0707 90.6224 19.6885V6.51446C90.6224 6.13228 90.3153 5.81754 89.9424 5.81754H87.7269C87.354 5.79506 87.0469 6.1098 87.0469 6.51446Z" fill="#191919"/>
<path d="M51.7765 12.6268H55.1107C55.4836 12.6268 55.7907 12.3121 55.7907 11.9299V10.1989C55.7907 9.81667 55.4836 9.50193 55.1107 9.50193H51.7765V6.98403C51.7765 6.60185 51.4694 6.28711 51.0964 6.28711H48.9687C48.5958 6.28711 48.2887 6.60185 48.2887 6.98403V9.47945H44.7131C44.3402 9.47945 44.0331 9.79419 44.0331 10.1764V11.9074C44.0331 12.2896 44.3402 12.6044 44.7131 12.6044H48.2887V17.5278L43.5724 22.2938C43.3092 22.5636 43.3092 23.0132 43.5724 23.283L44.757 24.5194C45.0202 24.7892 45.4589 24.7892 45.7221 24.5194L50.1751 20.0232L54.0797 24.2272C54.343 24.5194 54.7817 24.5194 55.0449 24.2497L56.2733 23.0581C56.5585 22.8109 56.5804 22.3612 56.3172 22.0914L51.7765 17.1905V12.6268Z" fill="#191919"/>
<path d="M105.1 5.77378H101.195V1.77212C101.195 1.38993 100.888 1.0752 100.515 1.0752H98.8701C98.4972 1.0752 98.1901 1.38993 98.1901 1.77212V5.77378H94.2855C93.9126 5.77378 93.6055 6.08852 93.6055 6.4707V8.1568C93.6055 8.53898 93.9126 8.85372 94.2855 8.85372H98.1901V12.8554C98.1901 13.2376 98.4972 13.5523 98.8701 13.5523H100.515C100.888 13.5523 101.195 13.2376 101.195 12.8554V8.8762H105.1C105.473 8.8762 105.78 8.56146 105.78 8.17928V6.49319C105.802 6.08852 105.495 5.77378 105.1 5.77378Z" fill="#3B7CF3"/>
<path d="M83.4275 20.6094C79.4791 20.6094 76.6055 23.0149 76.6055 26.3646C76.6055 29.7817 79.4133 32.1648 83.4275 32.1648C87.4199 32.1648 90.2277 29.7817 90.2277 26.3646C90.2058 23.0149 87.3541 20.6094 83.4275 20.6094ZM83.4275 23.6893C85.314 23.6893 86.696 24.8134 86.696 26.3646C86.696 27.9608 85.3579 29.0623 83.4275 29.0623C81.4752 29.0623 80.1152 27.9608 80.1152 26.3646C80.1152 24.8134 81.4972 23.6893 83.4275 23.6893Z" fill="#191919"/>
</svg>
