<svg width="136" height="54" viewBox="0 0 136 54" fill="none" xmlns="http://www.w3.org/2000/svg">
<g clip-path="url(#clip0_905_28781)">
<path d="M128.947 39.7441C126.404 39.7441 125.096 41.4196 124.89 41.6695C124.243 40.4643 123.068 39.7441 121.525 39.7441C119.291 39.7441 118.012 41.0375 117.806 41.258C117.718 40.9052 117.262 39.9646 115.807 39.9646C115.381 39.9646 114.778 40.0969 114.734 40.1116C114.793 40.3761 115.072 41.6989 115.072 43.536V51.5754H118.012V43.3891C118.012 43.3891 119.173 42.228 120.496 42.228C121.818 42.228 122.48 43.2127 122.48 44.5648V51.5901H125.434V43.3891C125.434 43.3891 126.58 42.228 127.918 42.228C129.255 42.228 129.873 43.2127 129.873 44.5648V51.5901H132.841V44.1092C132.841 41.4784 131.342 39.7735 128.961 39.7735L128.947 39.7441Z" fill="#676767"/>
<path d="M96.6851 49.4287C94.6863 49.4287 93.2607 47.8414 93.2607 45.7838C93.2607 43.491 94.8774 42.1095 96.6851 42.1095C97.6552 42.1095 98.0667 42.4034 98.7134 42.4034C99.4041 42.4034 99.7716 42.0654 100.11 41.404C100.301 41.0366 100.418 40.8308 100.418 40.8308C100.271 40.7426 98.7722 39.7285 96.2589 39.7285C92.5552 39.7285 90.3359 42.3887 90.3359 45.7838C90.3359 49.4875 92.8639 51.8096 96.2589 51.8096C98.7134 51.8096 100.212 50.8102 100.462 50.6192L99.4335 48.6056C99.2131 48.7526 98.1549 49.4287 96.6851 49.4287Z" fill="#676767"/>
<path d="M64.4216 39.7441C61.5997 39.7441 59.2188 42.0369 59.2188 45.7994C59.2188 49.5619 61.5262 51.8253 64.9801 51.8253C67.7137 51.8253 69.1394 50.6201 69.3157 50.5172C69.3157 50.5172 69.0512 50.091 68.9777 49.9587C68.5956 49.3267 68.1547 49.121 67.6697 49.121C66.6996 49.121 66.5821 49.5178 65.2593 49.5178C63.0106 49.5178 62.2317 47.7541 62.1729 46.5784H69.7126V45.7112C69.7126 42.1104 67.6403 39.7441 64.4216 39.7441ZM62.1435 44.506C62.1435 43.1833 63.0694 41.9634 64.3628 41.9634C65.8178 41.9634 66.6115 43.2274 66.6409 44.506H62.1435Z" fill="#676767"/>
<path d="M74.7363 48.297V36.26C74.7363 34.9078 73.8251 33.8496 72.4289 33.8496H71.7969V49.4728C71.7969 50.9131 72.6934 51.8096 74.2366 51.8096C76.1473 51.8096 76.7204 50.4575 76.7204 49.1788C76.647 49.2229 76.2354 49.3846 75.8239 49.3846C75.1478 49.3846 74.7363 48.9878 74.7363 48.297Z" fill="#676767"/>
<path d="M55.0746 47.9001V42.1829H57.5291L58.3815 39.9636H55.0599V36.5098C55.0599 36.5098 54.7954 36.5098 54.7807 36.5098C53.4726 36.5098 52.1205 37.0683 52.1205 39.9489V39.9783H49.9453V42.1976H52.1205V48.9289C52.1205 50.8396 53.2522 51.8243 54.8542 51.8243C56.1475 51.8243 57.823 51.4275 57.823 48.8701C57.7201 48.9289 57.1029 49.3405 56.4121 49.3405C55.4568 49.3405 55.0746 48.7526 55.0746 47.9148V47.9001Z" fill="#676767"/>
<path d="M82.8825 39.7441C80.0606 39.7441 77.6797 42.0369 77.6797 45.7994C77.6797 49.5619 79.9872 51.8253 83.4263 51.8253C86.16 51.8253 87.5856 50.6201 87.762 50.5172C87.762 50.5172 87.4974 50.091 87.4239 49.9587C87.0418 49.3267 86.6009 49.121 86.1159 49.121C85.1459 49.121 85.0283 49.5178 83.7056 49.5178C81.4569 49.5178 80.6632 47.7541 80.6191 46.5784H88.1735V45.7112C88.1735 42.1104 86.1012 39.7441 82.8825 39.7441ZM80.6191 44.506C80.6191 43.1833 81.5451 41.9634 82.8531 41.9634C84.3081 41.9634 85.1018 43.2274 85.1312 44.506H80.6338H80.6191Z" fill="#676767"/>
<path d="M107.19 51.8106C103.589 51.8106 101.414 49.4296 101.414 45.7847C101.414 42.1398 103.56 39.7441 107.19 39.7441C110.82 39.7441 112.966 42.1545 112.966 45.7847C112.966 49.2239 110.997 51.8106 107.19 51.8106ZM107.19 49.5472C108.998 49.5472 110.041 47.9893 110.041 45.7847C110.041 43.5801 109.027 42.0075 107.19 42.0075C105.353 42.0075 104.354 43.5507 104.354 45.7847C104.354 48.0187 105.368 49.5472 107.19 49.5472Z" fill="#676767"/>
<path d="M12.4062 38.6987C10.6279 37.861 9.17284 37.1996 9.17284 35.8328C9.17284 34.8039 9.99588 34.0397 11.642 34.0397C12.2446 34.0397 12.7443 34.1132 13.244 34.2014C13.5085 34.2455 13.7878 34.2895 14.0376 34.2895C15.4633 34.2895 16.2716 33.4371 16.8154 31.8057L17.0359 31.1443C16.8154 31.0562 14.4638 30.0273 11.4215 30.0273C6.55673 30.0273 3.99941 33.1432 3.99941 36.3765C3.99941 38.0079 4.51382 39.1837 5.30747 40.1243C6.33627 41.3148 7.806 42.1085 9.17284 42.7698C11.1717 43.7546 12.9794 44.4747 12.9794 45.9298C12.9794 47.2231 11.642 47.958 9.86361 47.958C7.42387 47.958 5.27807 46.5617 5.01352 46.3854L3 50.1479C3.35273 50.3536 5.93945 51.985 10.1869 51.985C14.7284 51.985 18.1529 49.3836 18.1529 45.386C18.1529 41.3883 14.9782 39.9333 12.3915 38.684L12.4062 38.6987Z" fill="black"/>
<path d="M30.1339 40.5511L38.3496 30.4688H32.4854L25.9305 39.1695H25.8276V30.4688H20.9922V51.8238H21.2861C23.3731 51.8238 25.857 50.8538 25.857 47.3706V42.4617H25.9599L32.6471 51.5593H38.7905L30.1192 40.5511H30.1339Z" fill="black"/>
<path d="M49.7957 22.4139L50.707 22.4433C51.1332 22.4727 51.6182 22.5021 52.2649 22.5021C56.7328 22.4874 59.6429 20.9001 61.2302 20.0183C57.5559 17.7108 52.2355 15.3739 45.6805 15.1094C45.2543 16.3292 41.8739 25.7208 41.6094 26.485C41.6535 26.5291 42.2414 27.1905 42.9762 28.4839C44.005 30.1447 44.5782 31.585 44.975 32.6579C45.8128 31.2469 45.9598 29.0571 46.0479 26.5585C46.1361 24.4715 46.4889 22.4286 49.8104 22.4286L49.7957 22.4139Z" fill="black"/>
<path d="M66.7982 24.707C66.5042 24.2367 65.0198 22.6494 62.536 20.9004L62.4625 20.9445C60.5077 22.0174 57.2303 23.8251 52.3949 23.8545C51.7629 23.8545 51.3808 23.8251 51.0574 23.8104L50.1756 23.781C47.8975 23.781 47.4272 24.7658 47.3537 26.6617V27.1761L47.3096 28.1314C47.2214 30.2331 46.9569 32.5994 45.59 34.2308L45.5312 34.3043C45.59 34.4365 45.6341 34.5688 45.6929 34.657C45.8105 34.8628 45.9722 34.9509 46.1632 34.9509C46.2808 34.9509 46.4278 34.9069 46.5895 34.8334C46.9863 34.657 62.9181 27.2349 65.3137 26.1326C65.6665 25.9562 66.3278 25.677 66.5483 25.5447C66.7688 25.4124 66.8716 25.2214 66.8716 25.0303C66.8716 24.9274 66.8422 24.8099 66.7835 24.7217L66.7982 24.707Z" fill="#676767"/>
<path d="M38.8051 7.73149L38.6581 7.76089C37.0708 8.05483 34.5723 9.52456 34.5723 12.1848C34.5723 13.3017 35.0132 14.2277 35.4688 15.2124C35.9979 16.3441 36.6005 17.6374 36.6005 19.4011C36.6005 22.076 35.072 23.6192 33.9844 24.3688C34.4841 24.3394 35.0132 24.31 35.5864 24.31C37.0708 24.31 37.9673 24.4423 38.0261 24.457L45.654 15.0948C43.5817 11.9937 41.186 9.58335 38.7904 7.7168L38.8051 7.73149Z" fill="black"/>
<path d="M32.4837 23.9136C33.88 23.1052 35.2468 21.709 35.2468 19.3721C35.2468 17.9759 34.7471 16.903 34.218 15.7713C33.7036 14.6543 33.1745 13.5079 33.1745 12.0382C33.1745 8.83422 35.7465 7.18813 37.3779 6.68842C32.2045 3.13169 27.3838 2 26.4873 2C26.1786 2 25.9141 2.20576 25.9141 2.61728C25.9141 2.86714 26.0169 3.5726 26.0463 3.95473C26.3256 6.60024 28.2362 24.0459 28.2803 24.4868C28.3391 24.9277 28.5302 25.1922 28.9123 25.1775C28.9711 25.1775 29.0446 25.1775 29.1181 25.1775C29.3973 25.1482 29.9411 25.0747 30.5878 24.8248C31.352 24.5309 31.837 24.2663 32.469 23.9136H32.4837Z" fill="#676767"/>
</g>
<defs>
<clipPath id="clip0_905_28781">
<rect width="129.835" height="50" fill="white" transform="translate(3 2)"/>
</clipPath>
</defs>
</svg>
