<svg width="226" height="32" viewBox="0 0 226 32" fill="none" xmlns="http://www.w3.org/2000/svg">
<path d="M94.6094 29.9102L107.131 17.3887" stroke="white"/>
<path d="M94.6113 17.3887L107.133 29.9102" stroke="white"/>
<g clip-path="url(#clip0_871_23396)">
<path d="M124.969 20.326C124.896 20.0249 124.914 19.7066 124.954 19.5417C125.056 19.0662 125.38 18.535 126.321 18.535C127.196 18.535 127.709 19.0777 127.709 19.8907V20.815H131.435V19.7661C131.433 16.5177 128.505 16 126.394 16C123.74 16 121.573 16.8802 121.176 19.3193C121.067 19.9885 121.05 20.5772 121.207 21.3327C121.853 24.3854 127.161 25.2694 127.934 27.2004C128.078 27.559 128.035 28.0211 127.963 28.303C127.84 28.8054 127.502 29.3116 126.503 29.3116C125.57 29.3116 125.012 28.7689 125.012 27.9521L125.006 26.5158H121V27.6568C121 30.9952 123.621 32 126.429 32C129.236 32 131.343 31.0796 131.704 28.581C131.884 27.2924 131.748 26.4545 131.688 26.1361C131.058 23.0029 125.395 22.0729 124.969 20.326ZM173.535 20.3624C173.468 20.0671 173.487 19.7546 173.522 19.5896C173.629 19.1122 173.949 18.5906 174.875 18.5906C175.738 18.5906 176.243 19.1275 176.243 19.9348V20.8476H179.924V19.8063C179.924 16.5887 177.04 16.0825 174.95 16.0825C172.319 16.0825 170.172 16.9492 169.779 19.371C169.675 20.0307 169.648 20.6155 169.815 21.3615C170.455 24.3797 175.709 25.256 176.473 27.1659C176.607 27.5283 176.569 27.9885 176.5 28.2608C176.384 28.7574 176.051 29.2579 175.059 29.2579C174.129 29.2579 173.571 28.7229 173.571 27.9175V26.4851H169.608V27.6242C169.608 30.9243 172.193 31.9214 174.979 31.9214C177.765 31.9214 179.849 31.0105 180.202 28.5388C180.371 27.2617 180.244 26.4314 180.175 26.117C179.558 23.0201 173.957 22.0901 173.533 20.3605L173.535 20.3624ZM207.445 28.4986L203.928 16.4756H198.386V31.2541H202.053L201.84 18.8456L205.617 31.2541H210.933V16.4756H207.244L207.447 28.4986H207.445ZM136.988 16.4756L134.221 31.4094H138.256L140.34 17.5858L142.375 31.4094H146.381L143.625 16.4756H136.987H136.988ZM159.545 16.4756L157.66 28.1496L155.777 16.4756H149.685L149.362 31.4094H153.094L153.196 17.5858L155.763 31.4094H159.55L162.12 17.5858L162.221 31.4094H165.963L165.629 16.4756H159.545ZM194.246 16.4756H190.469V27.5225C190.475 27.7143 190.469 27.931 190.436 28.0901C190.358 28.4602 190.043 29.1755 189.002 29.1755C187.961 29.1755 187.65 28.4621 187.577 28.0901C187.539 27.931 187.535 27.7143 187.539 27.5225V16.4756H183.763V27.1793C183.759 27.4554 183.78 28.0192 183.796 28.1668C184.057 30.9569 186.254 31.8619 189 31.8619C191.746 31.8619 193.947 30.9569 194.214 28.1668C194.235 28.0192 194.262 27.4554 194.246 27.1793V16.4756ZM220.177 23.0259V25.2042H221.708V27.3653C221.711 27.559 221.702 27.7661 221.669 27.9329C221.608 28.3356 221.226 29.0221 220.139 29.0221C219.052 29.0221 218.684 28.3356 218.618 27.9329C218.592 27.7661 218.58 27.557 218.58 27.3653V20.5407C218.58 20.2991 218.597 20.0345 218.647 19.8351C218.722 19.4708 219.044 18.7536 220.131 18.7536C221.274 18.7536 221.558 19.5091 221.623 19.8351C221.665 20.0499 221.669 20.4104 221.669 20.4104V21.2387H225.43V20.7498C225.43 20.7498 225.447 20.2378 225.401 19.7622C225.119 16.9607 222.81 16.0748 220.164 16.0748C217.518 16.0748 215.251 16.9684 214.921 19.7622C214.891 20.0173 214.847 20.4775 214.847 20.7498V27.0278C214.847 27.302 214.856 27.5129 214.906 28.0134C215.151 30.7383 217.512 31.7028 220.152 31.7028C222.793 31.7028 225.153 30.7363 225.405 28.0134C225.449 27.5129 225.454 27.302 225.46 27.0278V23.0259H220.177Z" fill="white"/>
</g>
<g clip-path="url(#clip1_871_23396)">
<path d="M80.3679 23.9961C78.7633 23.9961 77.9377 25.0535 77.8079 25.2112C77.3997 24.4506 76.6577 23.9961 75.6838 23.9961C74.2739 23.9961 73.4669 24.8123 73.337 24.9515C73.2814 24.7289 72.9938 24.1352 72.0756 24.1352C71.8066 24.1352 71.4263 24.2187 71.3984 24.228C71.4355 24.3949 71.6118 25.2297 71.6118 26.3892V31.4629H73.4669V26.2964C73.4669 26.2964 74.1997 25.5637 75.0345 25.5637C75.8693 25.5637 76.2867 26.1851 76.2867 27.0385V31.4722H78.1511V26.2964C78.1511 26.2964 78.8746 25.5637 79.7186 25.5637C80.5627 25.5637 80.9523 26.1851 80.9523 27.0385V31.4722H82.826V26.7509C82.826 25.0906 81.8799 24.0146 80.3772 24.0146L80.3679 23.9961Z" fill="white"/>
<path d="M60.0071 30.1102C58.7456 30.1102 57.8458 29.1084 57.8458 27.8098C57.8458 26.3628 58.8662 25.4909 60.0071 25.4909C60.6192 25.4909 60.879 25.6764 61.2871 25.6764C61.723 25.6764 61.9549 25.4631 62.1683 25.0457C62.2889 24.8138 62.3631 24.684 62.3631 24.684C62.2703 24.6283 61.3242 23.9883 59.7381 23.9883C57.4006 23.9883 56 25.6672 56 27.8098C56 30.1473 57.5954 31.6128 59.7381 31.6128C61.2871 31.6128 62.2332 30.9821 62.3909 30.8615L61.7416 29.5907C61.6025 29.6835 60.9346 30.1102 60.0071 30.1102Z" fill="white"/>
<path d="M39.6429 23.9961C37.862 23.9961 36.3594 25.4431 36.3594 27.8176C36.3594 30.1922 37.8156 31.6206 39.9954 31.6206C41.7207 31.6206 42.6204 30.86 42.7317 30.7951C42.7317 30.7951 42.5647 30.5261 42.5184 30.4426C42.2772 30.0438 41.9989 29.9139 41.6928 29.9139C41.0806 29.9139 41.0064 30.1644 40.1716 30.1644C38.7525 30.1644 38.2609 29.0513 38.2238 28.3092H42.9821V27.762C42.9821 25.4895 41.6743 23.9961 39.6429 23.9961ZM38.2052 27.0014C38.2052 26.1666 38.7896 25.3967 39.6058 25.3967C40.5241 25.3967 41.025 26.1944 41.0435 27.0014H38.2052Z" fill="white"/>
<path d="M46.152 29.3952V21.7985C46.152 20.9452 45.5769 20.2773 44.6957 20.2773H44.2969V30.1373C44.2969 31.0463 44.8627 31.6121 45.8366 31.6121C47.0424 31.6121 47.4042 30.7588 47.4042 29.9518C47.3578 29.9796 47.0981 30.0816 46.8384 30.0816C46.4117 30.0816 46.152 29.8312 46.152 29.3952Z" fill="white"/>
<path d="M33.745 29.1456V25.5374H35.294L35.832 24.1368H33.7357V21.957C33.7357 21.957 33.5688 21.957 33.5595 21.957C32.734 21.957 31.8806 22.3095 31.8806 24.1275V24.1461H30.5078V25.5467H31.8806V29.7949C31.8806 31.0007 32.5948 31.6222 33.6059 31.6222C34.4221 31.6222 35.4795 31.3718 35.4795 29.7578C35.4146 29.7949 35.025 30.0546 34.5891 30.0546C33.9862 30.0546 33.745 29.6836 33.745 29.1549V29.1456Z" fill="white"/>
<path d="M51.2914 23.9961C49.5105 23.9961 48.0078 25.4431 48.0078 27.8176C48.0078 30.1922 49.4641 31.6206 51.6346 31.6206C53.3598 31.6206 54.2596 30.86 54.3709 30.7951C54.3709 30.7951 54.2039 30.5261 54.1575 30.4426C53.9164 30.0438 53.6381 29.9139 53.332 29.9139C52.7198 29.9139 52.6456 30.1644 51.8108 30.1644C50.3916 30.1644 49.8908 29.0513 49.8629 28.3092H54.6306V27.762C54.6306 25.4895 53.3227 23.9961 51.2914 23.9961ZM49.8629 27.0014C49.8629 26.1666 50.4473 25.3967 51.2728 25.3967C52.1911 25.3967 52.692 26.1944 52.7105 27.0014H49.8722H49.8629Z" fill="white"/>
<path d="M66.6375 31.6114C64.365 31.6114 62.9922 30.1087 62.9922 27.8084C62.9922 25.508 64.3464 23.9961 66.6375 23.9961C68.9286 23.9961 70.2828 25.5173 70.2828 27.8084C70.2828 29.9788 69.0399 31.6114 66.6375 31.6114ZM66.6375 30.1829C67.7784 30.1829 68.437 29.1997 68.437 27.8084C68.437 26.417 67.7969 25.4245 66.6375 25.4245C65.478 25.4245 64.8473 26.3985 64.8473 27.8084C64.8473 29.2183 65.4873 30.1829 66.6375 30.1829Z" fill="white"/>
<path d="M6.81919 23.3398C5.69684 22.8111 4.77856 22.3937 4.77856 21.531C4.77856 20.8818 5.29799 20.3994 6.33686 20.3994C6.71716 20.3994 7.03253 20.4458 7.3479 20.5015C7.51486 20.5293 7.69109 20.5571 7.84878 20.5571C8.74851 20.5571 9.25867 20.0191 9.60186 18.9895L9.741 18.5721C9.60187 18.5165 8.11777 17.8672 6.19772 17.8672C3.12751 17.8672 1.51355 19.8336 1.51355 21.8742C1.51355 22.9038 1.8382 23.6459 2.33908 24.2395C2.98837 24.9908 3.91593 25.4917 4.77856 25.9091C6.04004 26.5306 7.18094 26.9851 7.18094 27.9034C7.18094 28.7196 6.33686 29.1834 5.21451 29.1834C3.67476 29.1834 2.32053 28.3022 2.15357 28.1909L0.882812 30.5655C1.10543 30.6953 2.73793 31.7249 5.41858 31.7249C8.28473 31.7249 10.4459 30.0831 10.4459 27.5602C10.4459 25.0372 8.44242 24.1189 6.80991 23.3305L6.81919 23.3398Z" fill="white"/>
<path d="M18.0038 24.5076L23.1888 18.1445H19.4879L15.351 23.6357H15.286V18.1445H12.2344V31.622H12.4199C13.737 31.622 15.3046 31.0098 15.3046 28.8115V25.7134H15.3695L19.5899 31.455H23.4671L17.9945 24.5076H18.0038Z" fill="white"/>
<path d="M30.4165 13.0611L30.9916 13.0797C31.2606 13.0982 31.5667 13.1168 31.9748 13.1168C34.7946 13.1075 36.6311 12.1058 37.6329 11.5492C35.314 10.093 31.9563 8.61813 27.8193 8.45117C27.5503 9.22105 25.417 15.1481 25.25 15.6305C25.2778 15.6583 25.6489 16.0757 26.1126 16.892C26.7619 17.9401 27.1237 18.8491 27.3741 19.5262C27.9028 18.6358 27.9956 17.2537 28.0512 15.6769C28.1069 14.3597 28.3295 13.0704 30.4258 13.0704L30.4165 13.0611Z" fill="white"/>
<path d="M41.1483 14.5078C40.9628 14.211 40.026 13.2093 38.4584 12.1055L38.412 12.1333C37.1784 12.8104 35.1099 13.9513 32.0583 13.9699C31.6594 13.9699 31.4182 13.9513 31.2142 13.942L30.6576 13.9235C29.2199 13.9235 28.9231 14.5449 28.8767 15.7415V16.0661L28.8489 16.6691C28.7933 17.9955 28.6263 19.4888 27.7637 20.5184L27.7266 20.5648C27.7637 20.6483 27.7915 20.7318 27.8286 20.7874C27.9028 20.9173 28.0048 20.9729 28.1254 20.9729C28.1996 20.9729 28.2924 20.9451 28.3944 20.8987C28.6448 20.7874 38.6996 16.1032 40.2115 15.4076C40.4341 15.2963 40.8515 15.12 40.9907 15.0366C41.1298 14.9531 41.1947 14.8325 41.1947 14.7119C41.1947 14.647 41.1762 14.5728 41.1391 14.5171L41.1483 14.5078Z" fill="white"/>
<path d="M23.4799 3.79443L23.3871 3.81298C22.3854 3.99849 20.8085 4.92605 20.8085 6.60494C20.8085 7.30988 21.0868 7.89424 21.3743 8.51571C21.7083 9.22993 22.0886 10.0462 22.0886 11.1593C22.0886 12.8474 21.1239 13.8213 20.4375 14.2944C20.7529 14.2758 21.0868 14.2573 21.4485 14.2573C22.3854 14.2573 22.9512 14.3408 22.9883 14.3501L27.8023 8.4415C26.4945 6.48435 24.9825 4.96316 23.4706 3.78516L23.4799 3.79443Z" fill="white"/>
<path d="M19.4899 14.0076C20.3711 13.4975 21.2338 12.6163 21.2338 11.1415C21.2338 10.2603 20.9184 9.58318 20.5845 8.86896C20.2598 8.16402 19.9259 7.44052 19.9259 6.51296C19.9259 4.49088 21.5491 3.45202 22.5787 3.13665C19.3137 0.891955 16.2713 0.177734 15.7055 0.177734C15.5107 0.177734 15.3438 0.307593 15.3438 0.567309C15.3438 0.724994 15.4087 1.17022 15.4272 1.41139C15.6035 3.08099 16.8093 14.0911 16.8371 14.3694C16.8742 14.6477 16.9948 14.8146 17.236 14.8053C17.2731 14.8053 17.3195 14.8053 17.3658 14.8053C17.5421 14.7868 17.8853 14.7404 18.2934 14.5827C18.7757 14.3972 19.0818 14.2303 19.4807 14.0076H19.4899Z" fill="white"/>
</g>
<defs>
<clipPath id="clip0_871_23396">
<rect width="104.46" height="16" fill="white" transform="translate(121 16)"/>
</clipPath>
<clipPath id="clip1_871_23396">
<rect width="81.9405" height="31.5556" fill="white" transform="translate(0.882812 0.177734)"/>
</clipPath>
</defs>
</svg>
